<?xml version="1.0" encoding="UTF-8" standalone="no"?>
<!-- Created with Inkscape (http://www.inkscape.org/) -->

<svg
   xmlns:dc="http://purl.org/dc/elements/1.1/"
   xmlns:cc="http://creativecommons.org/ns#"
   xmlns:rdf="http://www.w3.org/1999/02/22-rdf-syntax-ns#"
   xmlns:svg="http://www.w3.org/2000/svg"
   xmlns="http://www.w3.org/2000/svg"
   xmlns:sodipodi="http://sodipodi.sourceforge.net/DTD/sodipodi-0.dtd"
   xmlns:inkscape="http://www.inkscape.org/namespaces/inkscape"
   width="3701.8291"
   height="5749.8223"
   id="svg2"
   version="1.1"
   inkscape:version="0.48.2 r9819"
   sodipodi:docname="craig2.svg"
   inkscape:output_extension="org.inkscape.output.svg.inkscape">
  <defs
     id="defs4">
    <inkscape:perspective
       sodipodi:type="inkscape:persp3d"
       inkscape:vp_x="0 : 526.18109 : 1"
       inkscape:vp_y="0 : 1000 : 0"
       inkscape:vp_z="744.09448 : 526.18109 : 1"
       inkscape:persp3d-origin="372.04724 : 350.78739 : 1"
       id="perspective10" />
    <inkscape:perspective
       id="perspective2884"
       inkscape:persp3d-origin="0.5 : 0.33333333 : 1"
       inkscape:vp_z="1 : 0.5 : 1"
       inkscape:vp_y="0 : 1000 : 0"
       inkscape:vp_x="0 : 0.5 : 1"
       sodipodi:type="inkscape:persp3d" />
  </defs>
  <sodipodi:namedview
     id="base"
     pagecolor="#ffffff"
     bordercolor="#666666"
     borderopacity="1.0"
     inkscape:pageopacity="0.0"
     inkscape:pageshadow="2"
     inkscape:zoom="0.13019521"
     inkscape:cx="674.40671"
     inkscape:cy="3368.6583"
     inkscape:document-units="px"
     inkscape:current-layer="layer1"
     showgrid="false"
     inkscape:window-width="1280"
     inkscape:window-height="752"
     inkscape:window-x="0"
     inkscape:window-y="0"
     inkscape:window-maximized="1"
     fit-margin-top="1"
     fit-margin-left="1"
     fit-margin-right="1"
     fit-margin-bottom="1" />
  <metadata
     id="metadata7">
    <rdf:RDF>
      <cc:Work
         rdf:about="">
        <dc:format>image/svg+xml</dc:format>
        <dc:type
           rdf:resource="http://purl.org/dc/dcmitype/StillImage" />
        <dc:title></dc:title>
      </cc:Work>
    </rdf:RDF>
  </metadata>
  <g
     inkscape:label="Layer 1"
     inkscape:groupmode="layer"
     id="layer1"
     transform="translate(-35.269069,-3.5372055)">
    <g
       id="g3803"
       transform="matrix(5.0603249,0,0,2.5376842,48.180377,1124.7708)">
      <path
         sodipodi:nodetypes="ccccccccccccccccc"
         id="path2890"
         d="m 588.16579,928.13092 -5.43487,2.54452 -220.97998,-2.62363 c -61.73389,-1.94691 -133.65329,-3.35607 -195.88749,-3.80208 l -11.45896,0.26673 -11.35047,-2.81124 33.2512,-10.30689 6.82731,-3.21285 -0.39332,-64.82893 0.37524,-25.89118 367.16698,-0.93808 0.99673,49.35064 3.31847,26.82196 2.43901,19.5122 8.6304,4.3152 17.26079,7.69231 5.23896,3.91132 z"
         style="fill:#1c171f;fill-opacity:1;stroke:none"
         inkscape:connector-curvature="0" />
      <g
         id="g3771">
        <path
           style="fill:#3c4c8a;fill-opacity:1;stroke:none"
           d="m 180.91499,832.84186 c 64.67782,15.04009 119.16078,15.32119 181.79178,17.95715 62.58318,0.34007 125.54333,-5.77068 185.99232,-22.4783 22.86073,-20.45573 53.68185,-38.86654 58.6216,-71.88871 -4.11863,-42.75245 -20.85259,-82.64106 -42.58093,-120.9076 -25.43988,-34.281 -37.74113,-41.73147 -80.70804,-54.3645 -85.6311,-26.45117 -181.62593,-29.31288 -265.10553,6.10969 -46.96169,26.72125 -74.04144,76.7169 -93.29709,125.33164 -9.21865,21.32883 -21.04946,61.77376 -12.47242,70.86338 13.26031,15.9365 33.99137,27.35831 51.58376,39.07943 4.80524,3.00054 7.23464,5.2218 16.17455,10.29782 z"
           id="path3664"
           sodipodi:nodetypes="ccccccccccc"
           inkscape:connector-curvature="0" />
        <path
           style="fill:#22265c;fill-opacity:1;stroke:none"
           d="m 185.14056,614.20957 c 28.03981,33.63681 67.46732,54.86881 106.15916,73.83713 23.42402,7.72079 45.13028,13.33185 68.07773,7.88582 10.49553,5.95377 31.63954,10.15073 52.55487,3.83288 38.8604,-11.32026 78.49071,-26.23763 107.81884,-55.22383 17.08746,-13.21845 17.89918,-35.97985 -3.54428,-20.24918 -36.60735,21.06662 -75.56692,39.4329 -117.17987,47.79674 -36.02105,4.18906 -72.32603,-1.77755 -107.51243,-9.18955 -17.37369,-6.02568 -32.61537,-16.73182 -49.35232,-24.2242 -16.4641,-8.18268 -32.12211,-17.95973 -46.96839,-28.71013 -4.48083,-2.36077 -16.65492,-4.86433 -10.05331,4.24432 z"
           id="path3736"
           sodipodi:nodetypes="ccccccccccc"
           inkscape:connector-curvature="0" />
        <path
           sodipodi:type="arc"
           style="fill:#0a0f41;fill-opacity:1;stroke:none"
           id="path3757"
           sodipodi:cx="334.48276"
           sodipodi:cy="769.81909"
           sodipodi:rx="8.1896553"
           sodipodi:ry="7.9741378"
           d="m 342.67241,769.81909 c 0,4.404 -3.66663,7.97414 -8.18965,7.97414 -4.52302,0 -8.18966,-3.57014 -8.18966,-7.97414 0,-4.40399 3.66664,-7.97414 8.18966,-7.97414 4.52302,0 8.18965,3.57015 8.18965,7.97414 z" />
        <path
           sodipodi:type="arc"
           style="fill:#0a0f41;fill-opacity:1;stroke:none"
           id="path3759"
           sodipodi:cx="338.14655"
           sodipodi:cy="715.29321"
           sodipodi:rx="8.4051723"
           sodipodi:ry="8.1896553"
           d="m 346.55172,715.29321 c 0,4.52302 -3.76313,8.18966 -8.40517,8.18966 -4.64205,0 -8.40518,-3.66664 -8.40518,-8.18966 0,-4.52302 3.76313,-8.18965 8.40518,-8.18965 4.64204,0 8.40517,3.66663 8.40517,8.18965 z" />
        <path
           sodipodi:type="arc"
           style="fill:#0a0f41;fill-opacity:1;stroke:none"
           id="path3761"
           sodipodi:cx="331.25"
           sodipodi:cy="827.5777"
           sodipodi:rx="7.5431032"
           sodipodi:ry="7.1120691"
           d="m 338.7931,827.5777 c 0,3.92789 -3.37716,7.11207 -7.5431,7.11207 -4.16594,0 -7.5431,-3.18418 -7.5431,-7.11207 0,-3.92789 3.37716,-7.11207 7.5431,-7.11207 4.16594,0 7.5431,3.18418 7.5431,7.11207 z" />
        <path
           style="fill:#0a0f41;fill-opacity:1;stroke:none"
           d="m 192.66273,726.92721 c -11.99124,34.12938 -11.81955,104.9788 -9.55365,105.44619 8.82376,7.92129 34.12502,2.67613 74.68196,11.14075 21.12473,2.92305 43.16687,5.44876 64.54911,5.47929 27.95672,1.58882 23.42262,6.35253 23.95968,-21.11036 2.08353,-41.64725 6.77789,-88.09103 8.68787,-129.74712 4.59919,-9.08691 3.81533,11.59662 2.00156,21.79808 -1.99622,43.67769 -6.22124,87.26775 -6.48624,131.01969 40.58173,-0.97169 72.98914,1.10311 119.75916,-8.56467 24.63097,-3.11238 51.69757,-9.08946 76.00068,-14.09351 -5.60164,-39.35625 -11.21366,-81.13927 -21.85551,-120.21027 1.22023,-0.44963 2.50592,-1.62317 3.44774,0.67115 3.67723,8.95792 6.33116,24.68086 7.97576,32.57743 5.63775,27.58371 8.70909,56.07171 14.73498,83.55953 2.91781,11.65735 -13.89197,8.3587 -40.03528,14.9468 -51.88542,8.68204 -104.20668,17.35133 -157.01778,15.16066 -45.33978,-0.56933 -90.3679,-6.62809 -135.16724,-13.00094 -12.52029,-0.97318 -35.81769,1.0149 -37.75328,-7.70813 -3.00685,-12.06015 0.54405,-27.31483 -0.0231,-39.75659 -0.17512,-23.0521 0.008,-43.09313 7.94027,-64.61476 0.93861,-1.41003 2.33961,-3.22914 4.15334,-2.99322 z"
           id="path3763"
           sodipodi:nodetypes="cccccccccccsccccccccc"
           inkscape:connector-curvature="0" />
      </g>
      <g
         id="g3705">
        <path
           sodipodi:type="arc"
           style="fill:#e2c19c;fill-opacity:1;stroke:none"
           id="path3701"
           sodipodi:cx="574.76636"
           sodipodi:cy="792.08179"
           sodipodi:rx="42.990654"
           sodipodi:ry="41.588783"
           d="m 617.75701,792.08179 c 0,22.96885 -19.24757,41.58878 -42.99065,41.58878 -23.74309,0 -42.99066,-18.61993 -42.99066,-41.58878 0,-22.96885 19.24757,-41.58879 42.99066,-41.58879 23.74308,0 42.99065,18.61994 42.99065,41.58879 z"
           transform="translate(0.37453184,0.37453184)" />
        <path
           sodipodi:type="arc"
           style="fill:#e2c19c;fill-opacity:1;stroke:#513617;stroke-width:2.70000005;stroke-miterlimit:4;stroke-opacity:1;stroke-dasharray:none"
           id="path3703"
           sodipodi:cx="540.63672"
           sodipodi:cy="784.01013"
           sodipodi:rx="19.662922"
           sodipodi:ry="19.662922"
           d="m 560.29964,784.01013 c 0,10.85953 -8.80339,19.66292 -19.66292,19.66292 -10.85953,0 -19.66292,-8.80339 -19.66292,-19.66292 0,-10.85953 8.80339,-19.66292 19.66292,-19.66292 10.85953,0 19.66292,8.80339 19.66292,19.66292 z"
           transform="translate(3.3707865,-2.6217228)" />
      </g>
      <path
         transform="matrix(0.96232877,0,0,0.97651007,-10.622838,20.523718)"
         d="m 660.74765,396.28741 c 0,153.81389 -122.18023,278.50467 -272.89719,278.50467 -150.71695,0 -272.89718,-124.69078 -272.89718,-278.50467 0,-153.81388 122.18023,-278.50466 272.89718,-278.50466 150.71696,0 272.89719,124.69078 272.89719,278.50466 z"
         sodipodi:ry="278.50467"
         sodipodi:rx="272.89719"
         sodipodi:cy="396.28741"
         sodipodi:cx="387.85046"
         id="path3699"
         style="fill:#e2c19c;fill-opacity:1;stroke:none"
         sodipodi:type="arc" />
      <path
         sodipodi:nodetypes="cccccccccccccccc"
         id="path3746"
         d="M 126.22378,653.41113 C 103.23284,656.55187 111.3081,609.5677 102.55097,578.32455 89.953783,498.60079 81.664913,413.26795 97.112205,336.68129 114.32562,262.19794 161.07861,194.20763 226.5644,154.18313 c 94.36783,-40.04877 163.5326,-41.71407 240.60323,-9.37567 75.40093,33.22431 135.29833,102.74453 149.98927,184.83584 14.05356,59.19022 15.46471,123.37624 -10.67128,179.56786 -14.95983,41.89551 -21.17368,87.42246 -24.06116,131.62019 -11.77701,33.51414 -20.11798,8.43015 -11.53465,-34.74114 11.10736,-61.71859 10.84553,-124.79165 12.2554,-187.24504 1.56117,-25.24282 -16.44571,-45.79177 -39.09087,-54.03473 -80.86289,-34.21459 -176.89351,-37.40775 -264.54506,-15.88196 -39.92429,9.86738 -85.6887,19.02076 -122.05125,42.58726 -25.54734,14.151 -38.1217,38.3845 -36.73928,71.06108 -6.2756,54.75985 2.12233,109.23779 15.78542,162.04717 1.29714,10.18696 1.2295,24.37817 -10.28039,28.78714 z"
         style="fill:#394c89;fill-opacity:1;stroke:none"
         inkscape:connector-curvature="0" />
      <path
         sodipodi:nodetypes="ccccccccccccccccc"
         id="path3753"
         d="m 257.69231,134.18036 c 4.69651,-9.61363 15.04398,-9.95295 24.01025,-11.90787 6.90043,-5.21518 8.67897,-15.08794 16.87118,-18.5803 9.69374,-4.740571 23.0136,2.4925 30.61577,-6.436051 9.52126,-2.302314 19.51985,-0.337989 28.9826,-1.565092 8.655,1.301141 18.08008,-1.837982 26.71607,-1.356088 11.06136,2.438658 18.78372,12.599811 30.15912,14.234251 13.17366,0.17204 18.43526,8.26557 21.30401,17.87799 2.99172,7.17586 -7.02474,8.99592 -10.27482,12.87129 -10.70785,4.08594 -22.39032,-3.19852 -32.50071,2.09934 -7.44988,5.33268 -16.37409,10.86295 -25.86554,8.38283 -8.72645,-4.47555 -18.00178,-10.62182 -28.3849,-5.51251 -8.17916,4.32836 -18.38351,11.69223 -27.43723,4.92718 -0.22129,-7.95392 -0.17231,-22.32622 -8.92518,-10.30299 -5.90739,5.45761 -9.91439,15.09382 -19.44684,12.61883 -9.21157,-0.11481 -20.39476,2.29081 -27.12781,-5.71778 -2.77295,-3.49833 -2.33188,-8.83891 1.30403,-11.63303 z"
         style="fill:#e1c40b;fill-opacity:1;stroke:none"
         inkscape:connector-curvature="0" />
      <g
         id="g3791">
        <path
           transform="matrix(-0.79044364,0.58770765,0.58770765,0.79044364,423.39174,-97.217288)"
           d="m 384.05174,445.03461 c 0,47.84881 -32.71023,86.63793 -73.06035,86.63793 -40.35011,0 -73.06034,-38.78912 -73.06034,-86.63793 0,-47.84881 32.71023,-86.63793 73.06034,-86.63793 40.35012,0 73.06035,38.78912 73.06035,86.63793 z"
           sodipodi:ry="86.637932"
           sodipodi:rx="73.060349"
           sodipodi:cy="445.03461"
           sodipodi:cx="310.99139"
           id="path3781"
           style="fill:#e2e2e1;fill-opacity:1;stroke:none"
           sodipodi:type="arc" />
        <path
           sodipodi:type="arc"
           style="fill:#000000;fill-opacity:1;stroke:none"
           id="path3783"
           sodipodi:cx="404.95691"
           sodipodi:cy="438.78461"
           sodipodi:rx="10.560346"
           sodipodi:ry="10.560345"
           d="m 415.51725,438.78461 c 0,5.83231 -4.72802,10.56034 -10.56034,10.56034 -5.83232,0 -10.56035,-4.72803 -10.56035,-10.56034 0,-5.83232 4.72803,-10.56035 10.56035,-10.56035 5.83232,0 10.56034,4.72803 10.56034,10.56035 z"
           transform="matrix(0.91836735,0,0,0.91836735,33.919776,36.681221)" />
      </g>
      <g
         transform="matrix(1.0189248,0,0,1.0189248,-6.936902,-9.8206828)"
         id="g3787">
        <path
           sodipodi:type="arc"
           style="fill:#e2e2e1;fill-opacity:1;stroke:none"
           id="path3779"
           sodipodi:cx="310.99139"
           sodipodi:cy="445.03461"
           sodipodi:rx="73.060349"
           sodipodi:ry="86.637932"
           d="m 384.05174,445.03461 c 0,47.84881 -32.71023,86.63793 -73.06035,86.63793 -40.35011,0 -73.06034,-38.78912 -73.06034,-86.63793 0,-47.84881 32.71023,-86.63793 73.06034,-86.63793 40.35012,0 73.06035,38.78912 73.06035,86.63793 z"
           transform="matrix(0.77945091,0.57953438,-0.57953438,0.77945091,306.13976,-87.89719)" />
        <path
           transform="matrix(0.91836735,0,0,0.91836735,-49.700914,37.112255)"
           d="m 415.51725,438.78461 c 0,5.83231 -4.72802,10.56034 -10.56034,10.56034 -5.83232,0 -10.56035,-4.72803 -10.56035,-10.56034 0,-5.83232 4.72803,-10.56035 10.56035,-10.56035 5.83232,0 10.56034,4.72803 10.56034,10.56035 z"
           sodipodi:ry="10.560345"
           sodipodi:rx="10.560346"
           sodipodi:cy="438.78461"
           sodipodi:cx="404.95691"
           id="path3785"
           style="fill:#000000;fill-opacity:1;stroke:none"
           sodipodi:type="arc" />
      </g>
      <path
         sodipodi:nodetypes="ccc"
         id="path3795"
         d="m 331.03448,602.79321 c 33.2737,-10.50478 49.55097,-1.50857 73.7069,6.46552 l 0,0"
         style="opacity:0.60153258;fill:none;stroke:#000000;stroke-width:4.19999981;stroke-linecap:round;stroke-linejoin:miter;stroke-miterlimit:4;stroke-opacity:1;stroke-dasharray:none"
         inkscape:connector-curvature="0" />
      <g
         transform="matrix(-1,0,0,1,724.53127,10.344828)"
         id="g3797">
        <path
           transform="translate(0.37453184,0.37453184)"
           d="m 617.75701,792.08179 c 0,22.96885 -19.24757,41.58878 -42.99065,41.58878 -23.74309,0 -42.99066,-18.61993 -42.99066,-41.58878 0,-22.96885 19.24757,-41.58879 42.99066,-41.58879 23.74308,0 42.99065,18.61994 42.99065,41.58879 z"
           sodipodi:ry="41.588783"
           sodipodi:rx="42.990654"
           sodipodi:cy="792.08179"
           sodipodi:cx="574.76636"
           id="path3799"
           style="fill:#e2c19c;fill-opacity:1;stroke:none"
           sodipodi:type="arc" />
        <path
           transform="translate(3.3707865,-2.6217228)"
           d="m 560.29964,784.01013 c 0,10.85953 -8.80339,19.66292 -19.66292,19.66292 -10.85953,0 -19.66292,-8.80339 -19.66292,-19.66292 0,-10.85953 8.80339,-19.66292 19.66292,-19.66292 10.85953,0 19.66292,8.80339 19.66292,19.66292 z"
           sodipodi:ry="19.662922"
           sodipodi:rx="19.662922"
           sodipodi:cy="784.01013"
           sodipodi:cx="540.63672"
           id="path3801"
           style="fill:#e2c19c;fill-opacity:1;stroke:#513617;stroke-width:2.70000005;stroke-miterlimit:4;stroke-opacity:1;stroke-dasharray:none"
           sodipodi:type="arc" />
      </g>
    </g>
  </g>
</svg>
